<svg width="20" height="20" viewBox="0 0 20 20" fill="none" xmlns="http://www.w3.org/2000/svg">
<mask id="mask0_68531_926" style="mask-type:alpha" maskUnits="userSpaceOnUse" x="0" y="0" width="20" height="20">
<rect width="20" height="20" fill="#3DCFB6"/>
</mask>
<g mask="url(#mask0_68531_926)">
<path d="M9.19835 6.85863L0.921055 15.128C0.805638 15.2433 0.681471 15.2961 0.548555 15.2866C0.415499 15.277 0.291263 15.2145 0.175846 15.0991C0.0605686 14.9836 0.00292969 14.8573 0.00292969 14.7201C0.00292969 14.5829 0.0605686 14.4566 0.175846 14.3411L8.42439 6.08468H1.24001C1.08654 6.08468 0.95786 6.03315 0.853971 5.93009C0.750221 5.82704 0.698346 5.6994 0.698346 5.54718C0.698346 5.39482 0.750221 5.26579 0.853971 5.16009C0.95786 5.05426 1.08654 5.00134 1.24001 5.00134H9.61168C9.80154 5.00134 9.96064 5.06551 10.089 5.19384C10.2174 5.32231 10.2817 5.48141 10.2817 5.67113V14.043C10.2817 14.1965 10.2302 14.3251 10.1271 14.4288C10.024 14.5327 9.8964 14.5847 9.74418 14.5847C9.59182 14.5847 9.46272 14.5327 9.35689 14.4288C9.25119 14.3251 9.19835 14.1965 9.19835 14.043V6.85863Z" fill="#3DCFB6"/>
</g>
</svg>
