<svg width="49" height="48" viewBox="0 0 49 48" fill="none" xmlns="http://www.w3.org/2000/svg">
<mask id="mask0_3296_5461" style="mask-type:alpha" maskUnits="userSpaceOnUse" x="0" y="0" width="49" height="48">
<rect x="0.171875" width="48" height="48" fill="#D9D9D9"/>
</mask>
<g mask="url(#mask0_3296_5461)">
<path d="M8.30638 35.269C7.98504 35.269 7.71571 35.1593 7.49837 34.94C7.28071 34.7206 7.17188 34.449 7.17188 34.125C7.17188 33.8006 7.28071 33.532 7.49837 33.319C7.71571 33.1063 7.98504 33 8.30638 33H40.0374C40.3587 33 40.628 33.1096 40.8454 33.329C41.063 33.5483 41.1719 33.8201 41.1719 34.1445C41.1719 34.4685 41.063 34.737 40.8454 34.95C40.628 35.1626 40.3587 35.269 40.0374 35.269H8.30638ZM8.30638 25.1345C7.98504 25.1345 7.71571 25.0248 7.49837 24.8055C7.28071 24.5861 7.17188 24.3143 7.17188 23.99C7.17188 23.666 7.28071 23.3975 7.49837 23.1845C7.71571 22.9718 7.98504 22.8655 8.30638 22.8655H40.0374C40.3587 22.8655 40.628 22.9751 40.8454 23.1945C41.063 23.4138 41.1719 23.6856 41.1719 24.01C41.1719 24.334 41.063 24.6025 40.8454 24.8155C40.628 25.0281 40.3587 25.1345 40.0374 25.1345H8.30638ZM8.30638 15C7.98504 15 7.71571 14.8903 7.49837 14.671C7.28071 14.4516 7.17188 14.1798 7.17188 13.8555C7.17188 13.5315 7.28071 13.263 7.49837 13.05C7.71571 12.8373 7.98504 12.731 8.30638 12.731H40.0374C40.3587 12.731 40.628 12.8406 40.8454 13.06C41.063 13.2793 41.1719 13.551 41.1719 13.875C41.1719 14.1993 41.063 14.468 40.8454 14.681C40.628 14.8936 40.3587 15 40.0374 15H8.30638Z" fill="#3DCFB6"/>
</g>
</svg>
