<svg width="8" height="7" viewBox="0 0 8 7" fill="none" xmlns="http://www.w3.org/2000/svg">
<path d="M3.98926 1.39648C4.5803 1.39653 5.06686 1.59811 5.47754 2.00879C5.88813 2.41947 6.08887 2.90604 6.08887 3.49707C6.08883 4.01423 5.93472 4.45088 5.62109 4.82715L5.47754 4.98535C5.06686 5.39603 4.5803 5.59664 3.98926 5.59668C3.39822 5.59668 2.91166 5.39594 2.50098 4.98535L2.35645 4.82715C2.08777 4.50471 1.93627 4.1377 1.89844 3.71387L1.88867 3.49707C1.88867 2.9798 2.04275 2.54234 2.35645 2.16602L2.50098 2.00879C2.9117 1.59807 3.39813 1.39648 3.98926 1.39648Z" fill="#3DCFB6" stroke="#3DCFB6"/>
</svg>
